<?xml version="1.0" encoding="UTF-8"?>
<svg xmlns="http://www.w3.org/2000/svg" width="802" height="311" viewBox="0 0 802 311" role="img" aria-labelledby="title desc">
  <title id="title">Libro de reclamaciones digital</title>
  <desc id="desc">Vectorización del logotipo Libro de reclamaciones digital con fondo transparente.</desc>
  <g fill-rule="evenodd" clip-rule="evenodd">
    <path d="M 179 28 L 176 29 L 152 49 L 102 87 L 98 91 L 93 99 L 93 105 L 92 106 L 92 110 L 93 111 L 93 138 L 94 139 L 96 199 L 97 200 L 97 214 L 98 215 L 98 231 L 99 232 L 100 252 L 102 258 L 107 263 L 119 268 L 130 268 L 138 265 L 145 264 L 149 262 L 156 261 L 160 259 L 167 258 L 171 256 L 182 254 L 186 252 L 189 252 L 193 250 L 197 250 L 206 247 L 208 249 L 219 271 L 224 274 L 231 274 L 250 261 L 255 256 L 256 248 L 248 236 L 260 232 L 260 196 L 259 195 L 259 157 L 258 156 L 258 119 L 257 118 L 256 67 L 253 65 L 247 66 L 243 68 L 240 68 L 232 71 L 225 72 L 221 74 L 214 75 L 207 78 L 200 79 L 196 81 L 193 81 L 189 83 L 186 83 L 178 86 L 171 87 L 167 89 L 160 90 L 156 92 L 149 93 L 145 95 L 141 95 L 126 100 L 118 100 L 114 98 L 112 95 L 112 91 L 120 83 L 142 68 L 145 65 L 155 59 L 158 56 L 180 42 L 183 39 L 183 32 L 182 30 Z
M 309 199 L 309 216 L 312 222 L 317 225 L 467 225 L 471 223 L 475 217 L 475 199 L 474 196 L 468 191 L 316 191 L 311 195 Z
M 170 151 L 173 151 L 178 155 L 181 156 L 196 166 L 209 173 L 214 177 L 227 184 L 233 189 L 230 193 L 226 195 L 212 206 L 247 250 L 243 255 L 239 257 L 229 265 L 226 265 L 200 215 L 196 217 L 178 231 L 175 229 L 175 224 L 174 223 L 174 211 L 173 210 L 173 199 L 172 198 L 171 172 L 170 171 L 170 160 L 169 159 L 169 152 Z
M 229 44 L 226 42 L 222 43 L 193 58 L 191 58 L 189 60 L 187 60 L 152 78 L 150 78 L 126 90 L 124 93 L 126 94 L 129 92 L 134 91 L 152 83 L 157 82 L 165 78 L 170 77 L 183 71 L 188 70 L 196 66 L 201 65 L 204 63 L 206 63 L 209 61 L 211 61 L 214 59 L 228 54 Z
M 326 199 L 327 198 L 338 198 L 340 199 L 345 205 L 345 212 L 344 214 L 341 217 L 337 219 L 327 219 L 326 218 Z
M 367 199 L 369 198 L 377 198 L 381 201 L 379 204 L 375 202 L 370 202 L 367 205 L 366 208 L 367 212 L 370 215 L 376 215 L 378 213 L 378 211 L 374 211 L 373 208 L 374 207 L 383 207 L 384 208 L 383 213 L 379 218 L 377 219 L 369 219 L 363 214 L 362 212 L 362 205 Z
M 426 198 L 430 198 L 432 200 L 435 211 L 438 217 L 437 219 L 434 219 L 432 215 L 424 215 L 422 219 L 419 219 L 418 218 L 421 209 L 423 206 L 424 201 Z
M 401 198 L 416 198 L 417 199 L 416 202 L 411 202 L 410 203 L 410 215 L 411 217 L 409 219 L 406 218 L 406 202 L 401 202 L 400 201 Z
M 445 198 L 448 199 L 448 215 L 457 215 L 458 216 L 457 219 L 445 219 L 444 218 L 444 199 Z
M 331 202 L 331 215 L 336 215 L 340 212 L 341 207 L 338 203 L 336 202 Z
M 352 198 L 355 198 L 356 199 L 356 218 L 355 219 L 352 219 L 351 218 L 351 199 Z
M 391 198 L 394 199 L 394 218 L 393 219 L 390 218 L 390 199 Z
M 428 203 L 425 211 L 431 211 Z" fill="#0154A2"/>
    <path d="M 440 144 L 440 175 L 448 175 L 448 157 L 449 156 L 449 154 L 452 152 L 457 152 L 459 154 L 459 174 L 460 175 L 467 175 L 468 174 L 468 155 L 471 152 L 476 152 L 479 156 L 479 175 L 487 175 L 487 152 L 486 151 L 486 149 L 482 145 L 480 144 L 470 144 L 465 147 L 461 144 L 453 144 L 450 146 L 449 146 L 448 144 Z
M 349 78 L 349 118 L 355 118 L 356 116 L 362 119 L 369 119 L 375 116 L 378 113 L 381 106 L 381 101 L 380 100 L 380 97 L 378 95 L 378 94 L 374 90 L 370 88 L 361 88 L 360 89 L 358 89 L 356 91 L 355 90 L 355 78 L 354 77 L 353 78 Z
M 407 150 L 404 156 L 404 163 L 405 164 L 406 168 L 412 174 L 414 174 L 415 175 L 425 175 L 426 174 L 428 174 L 429 175 L 437 175 L 437 145 L 436 144 L 429 144 L 427 146 L 424 144 L 416 144 L 415 145 L 413 145 Z
M 494 148 L 490 155 L 490 165 L 493 170 L 496 173 L 500 175 L 510 175 L 513 173 L 514 175 L 522 175 L 522 144 L 514 144 L 513 146 L 509 144 L 501 144 Z
M 476 77 L 475 78 L 471 78 L 471 90 L 470 91 L 465 88 L 456 88 L 452 90 L 447 95 L 445 99 L 445 107 L 446 108 L 447 112 L 452 117 L 456 118 L 457 119 L 464 119 L 469 116 L 470 116 L 471 118 L 476 118 Z
M 580 144 L 574 147 L 569 154 L 569 158 L 568 159 L 569 160 L 569 165 L 571 169 L 575 173 L 579 175 L 582 175 L 583 176 L 591 175 L 595 173 L 600 167 L 601 165 L 601 155 L 597 148 L 596 148 L 594 146 L 590 144 Z
M 410 88 L 406 90 L 401 95 L 400 99 L 399 100 L 399 107 L 401 110 L 401 112 L 408 118 L 410 118 L 411 119 L 419 119 L 425 116 L 427 114 L 431 106 L 431 101 L 428 94 L 424 90 L 420 88 Z
M 646 144 L 642 146 L 638 150 L 636 154 L 636 156 L 635 157 L 635 163 L 636 164 L 636 166 L 639 171 L 641 173 L 645 175 L 649 175 L 650 176 L 658 175 L 662 173 L 666 169 L 666 168 L 661 165 L 659 165 L 655 168 L 648 168 L 644 164 L 644 163 L 645 162 L 667 162 L 667 156 L 666 155 L 666 153 L 664 149 L 661 146 L 657 144 Z
M 335 145 L 330 149 L 327 154 L 327 159 L 326 160 L 327 161 L 327 165 L 329 169 L 334 174 L 340 175 L 341 176 L 345 176 L 346 175 L 349 175 L 353 173 L 357 169 L 356 167 L 352 165 L 350 165 L 347 168 L 339 168 L 335 163 L 336 162 L 358 162 L 358 155 L 357 154 L 356 150 L 352 146 L 348 144 L 338 144 L 337 145 Z
M 490 88 L 486 90 L 482 94 L 480 98 L 480 109 L 482 113 L 485 116 L 491 119 L 500 119 L 506 116 L 509 113 L 509 111 L 505 109 L 499 114 L 492 114 L 486 109 L 485 106 L 486 105 L 510 105 L 510 97 L 507 92 L 503 89 L 501 89 L 500 88 Z
M 604 144 L 604 175 L 612 175 L 612 157 L 616 152 L 621 152 L 624 155 L 624 175 L 633 175 L 633 154 L 630 147 L 625 144 L 617 144 L 614 146 L 613 146 L 612 144 Z
M 675 145 L 670 150 L 670 158 L 676 163 L 685 164 L 687 166 L 687 168 L 686 169 L 680 169 L 677 165 L 669 165 L 669 168 L 670 170 L 674 174 L 676 174 L 677 175 L 681 175 L 682 176 L 684 175 L 689 175 L 690 174 L 692 174 L 695 171 L 696 167 L 697 166 L 696 161 L 694 159 L 690 157 L 682 156 L 680 155 L 678 153 L 678 152 L 679 151 L 683 150 L 685 151 L 687 153 L 687 154 L 695 154 L 695 151 L 694 149 L 691 146 L 687 144 L 678 144 L 677 145 Z
M 371 144 L 367 146 L 363 150 L 361 154 L 361 157 L 360 158 L 361 166 L 362 168 L 368 174 L 374 175 L 375 176 L 383 175 L 385 174 L 391 168 L 385 164 L 384 164 L 379 168 L 374 168 L 369 163 L 369 157 L 373 152 L 375 152 L 376 151 L 380 152 L 384 156 L 391 152 L 391 151 L 386 146 L 382 144 Z
M 536 144 L 529 148 L 525 155 L 525 164 L 526 165 L 526 167 L 530 172 L 535 175 L 538 175 L 539 176 L 547 175 L 551 173 L 555 169 L 555 167 L 552 166 L 550 164 L 548 164 L 544 168 L 539 168 L 534 164 L 533 158 L 538 152 L 545 152 L 549 156 L 554 153 L 555 151 L 553 149 L 553 148 L 552 148 L 549 145 L 547 145 L 546 144 Z
M 393 134 L 393 175 L 402 175 L 402 134 Z
M 326 144 L 323 144 L 319 147 L 317 144 L 310 144 L 309 145 L 309 175 L 317 175 L 318 174 L 318 157 L 322 153 L 326 152 L 327 150 L 327 148 L 326 147 L 327 145 Z
M 311 77 L 310 78 L 310 118 L 337 118 L 337 113 L 317 113 L 316 112 L 316 78 L 315 77 L 314 78 L 312 78 Z
M 409 94 L 411 94 L 412 93 L 418 93 L 424 98 L 425 100 L 425 107 L 420 113 L 418 113 L 417 114 L 412 114 L 405 108 L 405 99 Z
M 458 93 L 464 93 L 466 94 L 470 98 L 470 100 L 471 101 L 471 106 L 469 110 L 467 112 L 463 114 L 459 114 L 458 113 L 456 113 L 451 108 L 451 106 L 450 105 L 450 102 L 451 101 L 452 97 L 455 94 L 457 94 Z
M 362 93 L 368 93 L 375 99 L 375 107 L 374 109 L 370 113 L 368 113 L 367 114 L 363 114 L 359 112 L 355 107 L 355 100 L 356 98 Z
M 558 144 L 557 145 L 557 174 L 558 175 L 566 175 L 566 144 Z
M 399 88 L 395 88 L 390 92 L 389 91 L 389 88 L 384 88 L 384 118 L 389 118 L 389 103 L 390 102 L 390 99 L 394 94 L 399 93 Z
M 584 151 L 586 151 L 590 153 L 593 157 L 593 162 L 592 164 L 587 168 L 583 168 L 577 163 L 577 157 L 578 155 L 580 153 Z
M 417 152 L 423 152 L 425 153 L 428 157 L 428 163 L 422 168 L 416 167 L 414 165 L 412 161 L 413 156 Z
M 503 152 L 509 152 L 514 158 L 514 162 L 510 167 L 504 168 L 502 167 L 498 162 L 498 157 Z
M 340 88 L 340 118 L 345 118 L 345 88 Z
M 485 100 L 487 96 L 489 94 L 493 93 L 494 92 L 501 94 L 505 99 L 504 101 L 486 101 Z
M 557 135 L 557 141 L 558 142 L 566 142 L 566 134 L 558 134 Z
M 644 155 L 648 151 L 654 151 L 658 154 L 657 156 L 645 156 Z
M 336 154 L 340 151 L 345 151 L 347 152 L 349 154 L 349 155 L 348 156 L 337 156 Z
M 341 77 L 340 78 L 340 83 L 345 83 L 345 77 L 344 78 L 342 78 Z" fill="#4D4D4D"/>
  </g>
</svg>
