<svg xmlns="http://www.w3.org/2000/svg" viewBox="0 0 1254 1254" width="1254" height="1254">
  <defs>
    <style>
      .outer-shadow { stroke:#03296b; stroke-width:46; stroke-linecap:round; stroke-linejoin:round; fill:none; }
      .outer-main   { stroke:url(#outerGrad); stroke-width:34; stroke-linecap:round; stroke-linejoin:round; fill:none; }
      .spoke-main   { stroke:url(#spokeGrad); stroke-width:28; stroke-linecap:round; stroke-linejoin:round; fill:none; }
      .spoke-hi     { stroke:rgba(255,255,255,.35); stroke-width:8; stroke-linecap:round; stroke-linejoin:round; fill:none; }
    </style>

    <linearGradient id="outerGrad" x1="0%" y1="0%" x2="100%" y2="100%">
      <stop offset="0%" stop-color="#18a7f2"/>
      <stop offset="55%" stop-color="#0b7fd5"/>
      <stop offset="100%" stop-color="#0664bf"/>
    </linearGradient>

    <linearGradient id="spokeGrad" x1="0%" y1="0%" x2="100%" y2="100%">
      <stop offset="0%" stop-color="#aef1ff"/>
      <stop offset="50%" stop-color="#63ddff"/>
      <stop offset="100%" stop-color="#27c8ff"/>
    </linearGradient>

    <linearGradient id="bodyGrad" x1="50%" y1="0%" x2="50%" y2="100%">
      <stop offset="0%" stop-color="#134f9f"/>
      <stop offset="55%" stop-color="#0a3c86"/>
      <stop offset="100%" stop-color="#031f5d"/>
    </linearGradient>

    <radialGradient id="nodeGrad" cx="35%" cy="30%" r="70%">
      <stop offset="0%" stop-color="#a9e6ff"/>
      <stop offset="18%" stop-color="#47b6ff"/>
      <stop offset="52%" stop-color="#0f79da"/>
      <stop offset="100%" stop-color="#003f92"/>
    </radialGradient>

    <radialGradient id="centerGlow" cx="50%" cy="50%" r="50%">
      <stop offset="0%" stop-color="#27d7ff" stop-opacity="1"/>
      <stop offset="45%" stop-color="#1bc7ff" stop-opacity=".75"/>
      <stop offset="100%" stop-color="#0abaff" stop-opacity="0"/>
    </radialGradient>

    <filter id="softGlow" x="-40%" y="-40%" width="180%" height="180%">
      <feGaussianBlur stdDeviation="18" result="blur"/>
      <feMerge>
        <feMergeNode in="blur"/>
        <feMergeNode in="SourceGraphic"/>
      </feMerge>
    </filter>

    <filter id="nodeShadow" x="-30%" y="-30%" width="160%" height="160%">
      <feDropShadow dx="0" dy="5" stdDeviation="4" flood-color="#00255c" flood-opacity=".55"/>
    </filter>

    <g id="node" filter="url(#nodeShadow)">
      <circle cx="0" cy="0" r="65" fill="url(#nodeGrad)" stroke="#00377d" stroke-width="4"/>
      <ellipse cx="-18" cy="-22" rx="22" ry="17" fill="#ffffff" opacity=".75"/>
      <ellipse cx="-14" cy="-26" rx="13" ry="9" fill="#ffffff" opacity=".35"/>
    </g>
  </defs>

  <!-- Cuerpo central -->
  <polygon
    points="627,160 232,808 627,1042 1022,808"
    fill="url(#bodyGrad)"
    stroke="#0a205f"
    stroke-width="4"
  />

  <!-- Sombras internas -->
  <polygon points="627,160 627,611 232,808" fill="#0f4d9a" opacity=".22"/>
  <polygon points="627,160 1022,808 627,611" fill="#1a63b8" opacity=".18"/>
  <polygon points="232,808 627,1042 627,611" fill="#082d73" opacity=".22"/>
  <polygon points="627,611 627,1042 1022,808" fill="#041d58" opacity=".18"/>

  <!-- Hexágono exterior sombra -->
  <g>
    <line class="outer-shadow" x1="221" y1="379" x2="627" y2="155"/>
    <line class="outer-shadow" x1="627" y1="155" x2="1033" y2="377"/>
    <line class="outer-shadow" x1="1033" y1="377" x2="1036" y2="833"/>
    <line class="outer-shadow" x1="1036" y1="833" x2="626" y2="1075"/>
    <line class="outer-shadow" x1="626" y1="1075" x2="217" y2="833"/>
    <line class="outer-shadow" x1="217" y1="833" x2="221" y2="379"/>
  </g>

  <!-- Hexágono exterior -->
  <g>
    <line class="outer-main" x1="221" y1="379" x2="627" y2="155"/>
    <line class="outer-main" x1="627" y1="155" x2="1033" y2="377"/>
    <line class="outer-main" x1="1033" y1="377" x2="1036" y2="833"/>
    <line class="outer-main" x1="1036" y1="833" x2="626" y2="1075"/>
    <line class="outer-main" x1="626" y1="1075" x2="217" y2="833"/>
    <line class="outer-main" x1="217" y1="833" x2="221" y2="379"/>
  </g>

  <!-- Líneas al centro -->
  <g id="lineas-internas">
    <line class="spoke-main" x1="627" y1="155"  x2="626" y2="611"/>
    <line class="spoke-main" x1="221" y1="379"  x2="626" y2="611"/>
    <line class="spoke-main" x1="1033" y1="377" x2="626" y2="611"/>
    <line class="spoke-main" x1="217" y1="833"  x2="626" y2="611"/>
    <line class="spoke-main" x1="1036" y1="833" x2="626" y2="611"/>
    <line class="spoke-main" x1="627" y1="1075" x2="626" y2="611"/>

    <line class="spoke-hi" x1="627" y1="155"  x2="626" y2="611"/>
    <line class="spoke-hi" x1="221" y1="379"  x2="626" y2="611"/>
    <line class="spoke-hi" x1="1033" y1="377" x2="626" y2="611"/>
    <line class="spoke-hi" x1="217" y1="833"  x2="626" y2="611"/>
    <line class="spoke-hi" x1="1036" y1="833" x2="626" y2="611"/>
    <line class="spoke-hi" x1="626" y1="1075" x2="626" y2="611"/>
  </g>

  <!-- Resplandor -->
  <circle cx="626" cy="611" r="125" fill="url(#centerGlow)" filter="url(#softGlow)"/>

  <!-- Centro -->
  <circle cx="626" cy="611" r="53" fill="#f1f1f1"/>

  <!-- Nodos -->
  <use href="#node" x="627" y="155"/>
  <use href="#node" x="221" y="379"/>
  <use href="#node" x="1033" y="377"/>
  <use href="#node" x="217" y="833"/>
  <use href="#node" x="1036" y="833"/>
  <use href="#node" x="626" y="1075"/>
</svg>